<svg width="22" height="20" viewBox="0 0 22 20" fill="none" xmlns="http://www.w3.org/2000/svg">
<path d="M14.7579 6.95972C15.3102 6.95972 15.7579 6.512 15.7579 5.95972C15.7579 5.40743 15.3102 4.95972 14.7579 4.95972H14.749C14.1967 4.95972 13.749 5.40743 13.749 5.95972C13.749 6.512 14.1967 6.95972 14.749 6.95972H14.7579Z" fill="#FFAA00"/>
<path d="M16.7579 12.9597C16.7579 13.512 16.3102 13.9597 15.7579 13.9597H15.749C15.1967 13.9597 14.749 13.512 14.749 12.9597C14.749 12.4074 15.1967 11.9597 15.749 11.9597H15.7579C16.3102 11.9597 16.7579 12.4074 16.7579 12.9597Z" fill="#FFAA00"/>
<path fill-rule="evenodd" clip-rule="evenodd" d="M7.25012 11.7097C8.49276 11.7097 9.50012 12.7171 9.50012 13.9597C9.50012 15.2024 8.49276 16.2097 7.25012 16.2097C6.00748 16.2097 5.00012 15.2024 5.00012 13.9597C5.00012 12.7171 6.00748 11.7097 7.25012 11.7097ZM8.00012 13.9597C8.00012 13.5455 7.66434 13.2097 7.25012 13.2097C6.83591 13.2097 6.50012 13.5455 6.50012 13.9597C6.50012 14.3739 6.83591 14.7097 7.25012 14.7097C7.66434 14.7097 8.00012 14.3739 8.00012 13.9597Z" fill="#FFAA00"/>
<path fill-rule="evenodd" clip-rule="evenodd" d="M11.6649 1.00041C12.7638 0.351531 14.1335 -0.429665 15.8594 0.282973C18.1107 1.21258 19.935 2.93193 20.952 5.08989C21.3147 5.8595 21.5117 6.56437 21.4996 7.20241C21.4973 7.31984 21.488 7.43408 21.4717 7.54496C21.4902 7.61021 21.5001 7.67906 21.5001 7.75024V11.5117C21.5001 12.8104 21.5002 13.8549 21.3975 14.6831C21.2911 15.5408 21.065 16.266 20.5402 16.8689C20.0696 17.4095 19.4759 17.7171 18.7651 17.9183C18.0762 18.1132 17.2252 18.2216 16.2033 18.3319C15.5532 18.4021 15.0697 17.9722 14.8656 17.5452C14.653 17.1003 14.2241 16.8166 13.7501 16.8166C13.191 16.8166 12.6901 17.2153 12.5426 17.8004C12.4273 18.2577 12.043 18.7653 11.4028 18.8319L7.365 19.2517C5.87472 19.4066 4.6745 19.5314 3.72633 19.4932C2.74071 19.4536 1.901 19.2354 1.2232 18.5978C0.550336 17.9648 0.264146 17.1316 0.130135 16.1312C8.91387e-05 15.1603 0.000103974 13.9116 0.000122511 12.3494L0.000122949 9.08046C-4.26607e-05 9.06961 -3.92982e-05 9.05884 0.000122954 9.04815L0.000122988 8.78979C0.000122988 8.52363 0.138772 8.28984 0.347786 8.15673L0.350916 8.15239C0.560755 7.862 0.860299 7.55474 1.19539 7.25284C1.87236 6.64293 2.7994 5.96176 3.75261 5.34954C4.7055 4.73752 5.71609 4.17413 6.56633 3.81143C6.98759 3.63173 7.40125 3.48744 7.76513 3.41994C7.94699 3.3862 8.14571 3.36592 8.34219 3.38361C8.53522 3.40099 8.78603 3.46078 9.00381 3.64283C9.22373 3.82668 9.50443 3.93622 9.81215 3.93622C10.5087 3.93622 11.0789 3.36822 11.0789 2.66064C11.0789 2.61898 11.074 2.56972 11.063 2.46053C11.0539 2.36977 11.0396 2.22668 11.045 2.07818C11.0507 1.92532 11.0776 1.72488 11.1778 1.5203C11.2834 1.30474 11.4491 1.12785 11.6649 1.00041ZM12.5474 2.22168C12.5493 2.24563 12.5519 2.27457 12.5555 2.31029L12.558 2.3351C12.5663 2.41572 12.5789 2.53935 12.5789 2.66064C12.5789 4.19046 11.3433 5.43622 9.81215 5.43622C9.1885 5.43622 8.61184 5.22842 8.1493 4.87915C8.12231 4.88145 8.08584 4.88603 8.03874 4.89477C7.83074 4.93336 7.53238 5.03011 7.1549 5.19114C6.40766 5.5099 5.47393 6.02672 4.56323 6.61164C3.65284 7.19636 2.79703 7.82884 2.19942 8.36726C1.96555 8.57797 1.78649 8.76071 1.66193 8.90945C1.78679 8.93642 1.95752 8.96052 2.18681 8.97674C2.94413 9.03033 4.06419 8.98464 5.64847 8.9183L17.1877 8.43509C17.8454 8.40755 18.4042 8.33955 18.8522 8.22227C19.3052 8.10367 19.5901 7.94876 19.7566 7.78702C19.9019 7.64584 19.9943 7.46561 19.9998 7.17394C20.0059 6.85439 19.9055 6.38776 19.5952 5.72936C18.7416 3.91833 17.202 2.46023 15.2869 1.66942C14.3497 1.28246 13.6148 1.59861 12.5474 2.22168ZM19.2321 9.67336C19.497 9.60401 19.7564 9.51584 20.0001 9.40222V11.4615C20.0001 12.8221 19.9988 13.7734 19.9089 14.4986C19.8213 15.205 19.6596 15.5959 19.4088 15.884C19.1861 16.1398 18.8835 16.3259 18.3566 16.475C17.8329 16.6232 17.1458 16.7195 16.1827 16.8253C15.7276 15.9395 14.8177 15.3166 13.7501 15.3166C12.4804 15.3166 11.4377 16.1941 11.1093 17.3543L7.2696 17.7535C5.70554 17.9161 4.61362 18.0277 3.78664 17.9944C2.98449 17.9622 2.5602 17.7961 2.25101 17.5053C1.93689 17.2097 1.72959 16.7736 1.61686 15.932C1.50171 15.0724 1.50012 13.9245 1.50012 12.2931V10.4057C1.68606 10.438 1.88136 10.4589 2.08093 10.473C2.93345 10.5333 4.1391 10.4828 5.65504 10.4193L17.2504 9.93377C17.9634 9.90392 18.64 9.82837 19.2321 9.67336Z" fill="#FFAA00"/>
</svg>
