<svg width="32" height="32" viewBox="0 0 32 32" fill="none" xmlns="http://www.w3.org/2000/svg">
<path fill-rule="evenodd" clip-rule="evenodd" d="M17 10.6667C17 10.1144 16.5523 9.66666 16 9.66666C15.4477 9.66666 15 10.1144 15 10.6667V19.138C13.461 19.5733 12.3333 20.9883 12.3333 22.6667C12.3333 24.6917 13.9749 26.3333 16 26.3333C18.025 26.3333 19.6666 24.6917 19.6666 22.6667C19.6666 20.9883 18.539 19.5733 17 19.138V10.6667ZM14.3333 22.6667C14.3333 21.7462 15.0795 21 16 21C16.9205 21 17.6666 21.7462 17.6666 22.6667C17.6666 23.5871 16.9205 24.3333 16 24.3333C15.0795 24.3333 14.3333 23.5871 14.3333 22.6667Z" fill="#035587"/>
<path fill-rule="evenodd" clip-rule="evenodd" d="M16.0337 1.66666H15.9663C15.3734 1.66665 14.8784 1.66664 14.4721 1.69438C14.0491 1.72325 13.6495 1.7855 13.2622 1.94603C12.3643 2.31817 11.6508 3.03159 11.2787 3.9295C11.1182 4.31685 11.0559 4.7164 11.027 5.13941C10.9993 5.54575 10.9993 6.04071 10.9993 6.63361L10.9993 16.8552C9.36838 18.2599 8.33331 20.3425 8.33331 22.6667C8.33331 26.9008 11.7658 30.3333 16 30.3333C20.2342 30.3333 23.6666 26.9008 23.6666 22.6667C23.6666 20.3425 22.6316 18.2599 21.0006 16.8552V6.63365C21.0006 6.04073 21.0006 5.54576 20.9729 5.13941C20.944 4.7164 20.8818 4.31685 20.7213 3.9295C20.3491 3.03159 19.6357 2.31816 18.7378 1.94603C18.3504 1.7855 17.9509 1.72325 17.5279 1.69438C17.1215 1.66664 16.6266 1.66665 16.0337 1.66666ZM14.0279 3.79365C14.1308 3.75099 14.2872 3.71165 14.6083 3.68973C14.9384 3.6672 15.3647 3.66666 16 3.66666C16.6352 3.66666 17.0616 3.6672 17.3917 3.68973C17.7128 3.71165 17.8691 3.75099 17.9721 3.79365C18.3802 3.9628 18.7045 4.28708 18.8736 4.69522C18.9163 4.79814 18.9556 4.9545 18.9776 5.27562C19.0001 5.60573 19.0006 6.03206 19.0006 6.66731V17.3333C19.0006 17.6478 19.1485 17.9439 19.4 18.1328C20.7783 19.1684 21.6666 20.8136 21.6666 22.6667C21.6666 25.7963 19.1296 28.3333 16 28.3333C12.8704 28.3333 10.3333 25.7963 10.3333 22.6667C10.3333 20.8136 11.2217 19.1684 12.6 18.1328C12.8514 17.9439 12.9993 17.6478 12.9993 17.3333V6.66731C12.9993 6.03206 12.9999 5.60573 13.0224 5.27562C13.0443 4.9545 13.0837 4.79814 13.1263 4.69522C13.2955 4.28708 13.6198 3.9628 14.0279 3.79365Z" fill="#035587"/>
</svg>
