<svg width="32" height="32" viewBox="0 0 32 32" fill="none" xmlns="http://www.w3.org/2000/svg">
<path d="M17.6667 3.66666H19.3334C19.8856 3.66666 20.3334 3.21894 20.3334 2.66666C20.3334 2.11437 19.8856 1.66666 19.3334 1.66666H14C13.4477 1.66666 13 2.11437 13 2.66666C13 3.21894 13.4477 3.66666 14 3.66666H15.6667V4.43902C13.406 4.72767 11.3177 5.59516 9.56267 6.88864C9.51565 6.79393 9.4527 6.70512 9.37379 6.62622L8.04046 5.29288C7.64994 4.90236 7.01677 4.90236 6.62625 5.29288C6.23572 5.68341 6.23572 6.31657 6.62625 6.7071L7.95958 8.04043C8.00069 8.08154 8.04448 8.11831 8.0904 8.15077C6.04711 10.1814 4.67221 12.8795 4.33941 15.8901C4.27873 16.4391 4.67454 16.9333 5.22348 16.9939C5.77242 17.0546 6.26662 16.6588 6.3273 16.1099C6.93433 10.6186 11.6644 6.33332 17.3334 6.33332C23.4085 6.33332 28.3334 11.2582 28.3334 17.3333C28.3334 23.4085 23.4085 28.3333 17.3334 28.3333H2.66669C2.1144 28.3333 1.66669 28.781 1.66669 29.3333C1.66669 29.8856 2.1144 30.3333 2.66669 30.3333H17.3334C24.5131 30.3333 30.3334 24.513 30.3334 17.3333C30.3334 13.4247 28.6084 9.91904 25.8783 7.53593L26.7071 6.7071C27.0977 6.31657 27.0977 5.68341 26.7071 5.29288C26.3166 4.90236 25.6834 4.90236 25.2929 5.29288L24.2572 6.32858C22.3403 5.11999 20.0856 4.39839 17.6667 4.33751V3.66666Z" fill="#226993"/>
<path fill-rule="evenodd" clip-rule="evenodd" d="M22.7073 12.7071C23.0978 12.3166 23.0978 11.6834 22.7073 11.2929C22.3168 10.9024 21.6836 10.9024 21.2931 11.2929L17.9601 14.6259C17.5684 14.4386 17.1296 14.3334 16.6669 14.3334C15.01 14.3334 13.6669 15.6765 13.6669 17.3334C13.6669 18.9902 15.01 20.3334 16.6669 20.3334C18.3237 20.3334 19.6669 18.9902 19.6669 17.3334C19.6669 16.8706 19.5617 16.4318 19.3743 16.0401L22.7073 12.7071ZM15.6669 17.3334C15.6669 16.7811 16.1146 16.3334 16.6669 16.3334C16.9433 16.3334 17.1919 16.4442 17.374 16.6263C17.556 16.8083 17.6669 17.0569 17.6669 17.3334C17.6669 17.8856 17.2191 18.3334 16.6669 18.3334C16.1146 18.3334 15.6669 17.8856 15.6669 17.3334Z" fill="#226993"/>
<path d="M1.66669 20C1.66669 19.4477 2.1144 19 2.66669 19H6.66669C7.21897 19 7.66669 19.4477 7.66669 20C7.66669 20.5523 7.21897 21 6.66669 21H2.66669C2.1144 21 1.66669 20.5523 1.66669 20Z" fill="#226993"/>
<path d="M2.66669 24.3333C2.1144 24.3333 1.66669 24.781 1.66669 25.3333C1.66669 25.8856 2.1144 26.3333 2.66669 26.3333H9.33335C9.88564 26.3333 10.3334 25.8856 10.3334 25.3333C10.3334 24.781 9.88564 24.3333 9.33335 24.3333H2.66669Z" fill="#226993"/>
</svg>
