<svg width="24" height="24" viewBox="0 0 24 24" fill="none" xmlns="http://www.w3.org/2000/svg">
<g opacity="0.87">
<path d="M2 9.1371C2 14 6.01943 16.5914 8.96173 18.9109C10 19.7294 11 20.5 12 20.5C13 20.5 14 19.7294 15.0383 18.9109C17.9806 16.5914 22 14 22 9.1371C22 4.27416 16.4998 0.825464 12 5.50063C7.50016 0.825464 2 4.27416 2 9.1371Z" fill="#03578A"/>
<path d="M8.96173 18.9109L8.65219 19.3035L8.96173 18.9109ZM12 5.50063L11.6398 5.84737C11.734 5.9453 11.8641 6.00063 12 6.00063C12.1359 6.00063 12.266 5.9453 12.3602 5.84737L12 5.50063ZM15.0383 18.9109L14.7287 18.5182L15.0383 18.9109ZM8.96173 18.9109L9.27127 18.5182C7.77045 17.3351 6.08543 16.148 4.75136 14.6458C3.43443 13.1629 2.5 11.4125 2.5 9.1371H2H1.5C1.5 11.7246 2.57528 13.7014 4.00365 15.3098C5.41487 16.8989 7.21071 18.1672 8.65219 19.3035L8.96173 18.9109ZM2 9.1371H2.5C2.5 6.8927 3.76859 4.99759 5.52043 4.19682C7.24074 3.41046 9.5178 3.64273 11.6398 5.84737L12 5.50063L12.3602 5.1539C9.98236 2.68336 7.25942 2.3024 5.1047 3.28733C2.98149 4.25786 1.5 6.51856 1.5 9.1371H2ZM8.96173 18.9109L8.65219 19.3035C9.16673 19.7092 9.70317 20.1286 10.243 20.4441C10.7826 20.7594 11.3731 21 12 21V20.5V20C11.6269 20 11.2174 19.8553 10.7475 19.5807C10.2777 19.3062 9.79501 18.9311 9.27127 18.5182L8.96173 18.9109ZM15.0383 18.9109L15.3478 19.3035C16.7893 18.1672 18.5851 16.8989 19.9964 15.3098C21.4247 13.7014 22.5 11.7246 22.5 9.1371H22H21.5C21.5 11.4125 20.5656 13.1629 19.2486 14.6458C17.9146 16.148 16.2295 17.3351 14.7287 18.5182L15.0383 18.9109ZM22 9.1371H22.5C22.5 6.51856 21.0185 4.25786 18.8953 3.28733C16.7406 2.3024 14.0176 2.68336 11.6398 5.1539L12 5.50063L12.3602 5.84737C14.4822 3.64273 16.7593 3.41046 18.4796 4.19682C20.2314 4.99759 21.5 6.8927 21.5 9.1371H22ZM15.0383 18.9109L14.7287 18.5182C14.205 18.9311 13.7223 19.3062 13.2525 19.5807C12.7826 19.8553 12.3731 20 12 20V20.5V21C12.6269 21 13.2174 20.7594 13.757 20.4441C14.2968 20.1286 14.8333 19.7092 15.3478 19.3035L15.0383 18.9109Z" fill="#03578A"/>
</g>
</svg>
