<svg width="13" height="15" viewBox="0 0 13 15" fill="none" xmlns="http://www.w3.org/2000/svg">
<path fill-rule="evenodd" clip-rule="evenodd" d="M6.50043 0C6.04933 0 5.72525 0.322526 5.55364 0.517194C5.45427 0.629919 5.36558 0.74842 5.2945 0.844665L5.26753 0.88121C5.2048 0.966259 5.1631 1.0228 5.12787 1.06362C5.02982 1.17721 4.96957 1.2317 4.91582 1.26384C4.87321 1.28932 4.8139 1.31327 4.69921 1.31485C4.58201 1.31648 4.45521 1.27914 4.22426 1.21112L4.19816 1.20344C3.99052 1.14233 3.67405 1.0498 3.33869 1.10026C3.19297 1.12219 3.00175 1.17459 2.8536 1.32371C2.67815 1.50032 2.64983 1.72005 2.67549 1.88613C2.69766 2.02964 2.76025 2.14912 2.8012 2.21987C2.84013 2.28713 2.88555 2.35297 2.91573 2.39672L2.92607 2.41171L3.54795 3.31689L3.58591 3.37229C3.66911 3.49388 3.7504 3.61266 3.84032 3.72264C3.60011 3.87272 3.41942 4.04847 3.19142 4.27022L3.17359 4.28756C1.92958 5.49719 0.503581 7.54976 0.0450772 10.3083C-0.148768 11.4746 0.299228 12.498 1.06913 13.2128C1.83132 13.9204 2.91196 14.3334 4.03901 14.3334H8.96125C10.0883 14.3334 11.1689 13.9204 11.9311 13.2128C12.701 12.498 13.149 11.4746 12.9552 10.3083C12.4967 7.54976 11.0707 5.49719 9.82667 4.28756L9.80885 4.27022C9.58097 4.04859 9.40035 3.87291 9.16033 3.72289C9.25034 3.61284 9.33169 3.49397 9.41495 3.37229L9.45291 3.31689L10.0748 2.41171L10.0851 2.39672C10.1153 2.35297 10.1607 2.28713 10.1997 2.21987C10.2406 2.14912 10.3032 2.02964 10.3254 1.88613C10.351 1.72006 10.3227 1.50032 10.1473 1.32372C9.99911 1.17459 9.80789 1.12219 9.66217 1.10026C9.32681 1.0498 9.01034 1.14233 8.8027 1.20344L8.7766 1.21112C8.54565 1.27914 8.41885 1.31648 8.30165 1.31485C8.18696 1.31327 8.12765 1.28932 8.08504 1.26384C8.03129 1.2317 7.97104 1.17721 7.87299 1.06362C7.83776 1.0228 7.79606 0.966263 7.73333 0.881212L7.70637 0.844665C7.63528 0.74842 7.54659 0.62992 7.44722 0.517194C7.27561 0.322526 6.95153 0 6.50043 0ZM5.88488 1.71702C5.94748 1.64449 6.01538 1.55221 6.07353 1.47318L6.09888 1.43877C6.16907 1.34374 6.23554 1.25589 6.30378 1.17847C6.41681 1.05026 6.48084 1.01402 6.50043 1.00386C6.52002 1.01402 6.58405 1.05026 6.69708 1.17847C6.76532 1.25589 6.83179 1.34374 6.90198 1.43877L6.92733 1.47319C6.98548 1.55221 7.05338 1.64449 7.11598 1.71702C7.23068 1.84991 7.37594 2.00496 7.57182 2.1221C7.77884 2.2459 8.01329 2.31096 8.28781 2.31476C8.56222 2.31856 8.83214 2.23863 9.01902 2.18248L8.62868 2.75063C8.34154 3.16857 8.29057 3.21536 8.18054 3.25859C8.11069 3.28604 8.00991 3.30847 7.81826 3.32067C7.6232 3.3331 7.37203 3.33333 7.0059 3.33333H5.99496C5.62883 3.33333 5.37766 3.3331 5.1826 3.32067C4.99095 3.30847 4.89017 3.28604 4.82032 3.25859C4.71029 3.21536 4.65932 3.16857 4.37218 2.75063L3.98184 2.18248C4.16872 2.23863 4.43864 2.31856 4.71305 2.31476C4.98757 2.31096 5.22202 2.2459 5.42904 2.1221C5.62492 2.00496 5.77018 1.84991 5.88488 1.71702ZM4.60825 4.45146C4.8816 4.3401 5.10492 4.33336 5.78161 4.33336H7.21865C7.89534 4.33336 8.11866 4.3401 8.39201 4.45146C8.67391 4.56629 8.78557 4.67004 9.12954 5.0045C10.2538 6.09771 11.5521 7.96574 11.9687 10.4723C12.1004 11.2647 11.8078 11.9628 11.2508 12.4799C10.6861 13.0042 9.85356 13.3334 8.96125 13.3334H4.03901C3.1467 13.3334 2.31421 13.0042 1.7495 12.4799C1.1925 11.9628 0.899831 11.2647 1.03154 10.4723C1.44816 7.96574 2.74644 6.09771 3.87072 5.0045C4.2147 4.67003 4.32635 4.56629 4.60825 4.45146Z" fill="#03578A"/>
</svg>
