<svg width="41" height="44" viewBox="0 0 41 44" fill="none" xmlns="http://www.w3.org/2000/svg">
<rect x="0.5" y="4.5" width="39" height="39" rx="11.5" stroke="#1F1F1E" stroke-opacity="0.15"/>
<path fill-rule="evenodd" clip-rule="evenodd" d="M18.5286 13.6243C18.9737 13.333 19.517 13.25 20 13.25C20.483 13.25 21.0263 13.333 21.4714 13.6243C21.9652 13.9476 22.25 14.4708 22.25 15.125C22.25 15.5892 22.1088 16.0694 21.8789 16.4843C25.0314 17.2865 27.4122 20.0613 27.5906 23.4516C27.5997 23.6241 27.6064 23.7893 27.6129 23.9485C27.6351 24.49 27.6544 24.9615 27.7525 25.4133C27.8698 25.9531 28.0867 26.3775 28.5279 26.7084C29.2972 27.2854 29.75 28.191 29.75 29.1527C29.75 30.534 28.6628 31.75 27.2 31.75H23.675C23.3275 33.4617 21.8142 34.75 20 34.75C18.1858 34.75 16.6725 33.4617 16.325 31.75H12.8C11.3372 31.75 10.25 30.534 10.25 29.1527C10.25 28.191 10.7028 27.2854 11.4721 26.7084C11.9133 26.3775 12.1302 25.9531 12.2475 25.4133C12.3456 24.9615 12.3649 24.49 12.3871 23.9485C12.3936 23.7894 12.4003 23.6241 12.4094 23.4516C12.5878 20.0613 14.9686 17.2865 18.1211 16.4843C17.8912 16.0694 17.75 15.5892 17.75 15.125C17.75 14.4708 18.0348 13.9476 18.5286 13.6243ZM17.878 31.75C18.1869 32.6239 19.0203 33.25 20 33.25C20.9797 33.25 21.8131 32.6239 22.122 31.75H17.878ZM27.2 30.25C27.7736 30.25 28.25 29.7677 28.25 29.1527C28.25 28.6631 28.0195 28.2021 27.6279 27.9084C26.8218 27.3039 26.4574 26.5176 26.2867 25.7316C26.158 25.1391 26.1325 24.4942 26.1103 23.9342C26.1048 23.7936 26.0994 23.6581 26.0927 23.5304C25.9221 20.29 23.2449 17.75 20 17.75C16.7551 17.75 14.0779 20.29 13.9073 23.5304C13.9006 23.6582 13.8953 23.7935 13.8897 23.9342C13.8675 24.4942 13.842 25.1391 13.7133 25.7316C13.5426 26.5176 13.1782 27.3039 12.3721 27.9084C11.9805 28.2021 11.75 28.6631 11.75 29.1527C11.75 29.7677 12.2264 30.25 12.8 30.25H27.2ZM20.4587 15.9257C20.2647 16.1868 20.0869 16.25 20 16.25C19.9131 16.25 19.7353 16.1868 19.5413 15.9257C19.3528 15.6722 19.25 15.3573 19.25 15.125C19.25 15.0211 19.2704 14.9703 19.2816 14.9489C19.2923 14.9286 19.3098 14.9057 19.3501 14.8793C19.4479 14.8153 19.6546 14.75 20 14.75C20.3454 14.75 20.5521 14.8153 20.6499 14.8793C20.6902 14.9057 20.7077 14.9286 20.7184 14.9489C20.7296 14.9703 20.75 15.0211 20.75 15.125C20.75 15.3573 20.6472 15.6722 20.4587 15.9257Z" fill="#1F1F1E"/>
<rect x="27" width="14" height="14" rx="7" fill="#03578A"/>
<path d="M33.622 6.39C34.0553 6.39 34.3753 6.3 34.582 6.12C34.7886 5.93333 34.892 5.69667 34.892 5.41V5.34C34.892 5.02 34.792 4.77667 34.592 4.61C34.392 4.43667 34.122 4.35 33.782 4.35C33.4486 4.35 33.1653 4.42667 32.932 4.58C32.6986 4.72667 32.502 4.93333 32.342 5.2L31.592 4.55C31.6986 4.39667 31.8186 4.25 31.952 4.11C32.0853 3.97 32.242 3.85 32.422 3.75C32.602 3.64333 32.8053 3.56 33.032 3.5C33.2586 3.43333 33.5186 3.4 33.812 3.4C34.1386 3.4 34.442 3.44 34.722 3.52C35.002 3.6 35.242 3.72 35.442 3.88C35.642 4.03333 35.7986 4.22333 35.912 4.45C36.0253 4.67 36.082 4.92 36.082 5.2C36.082 5.42 36.0453 5.62 35.972 5.8C35.9053 5.98 35.8086 6.14 35.682 6.28C35.562 6.41333 35.4186 6.52333 35.252 6.61C35.092 6.69667 34.922 6.76 34.742 6.8V6.85C34.942 6.89 35.1286 6.95667 35.302 7.05C35.482 7.13667 35.6386 7.25333 35.772 7.4C35.9053 7.54 36.0086 7.71 36.082 7.91C36.162 8.10333 36.202 8.32667 36.202 8.58C36.202 8.88667 36.142 9.16667 36.022 9.42C35.902 9.66667 35.732 9.88 35.512 10.06C35.2986 10.24 35.0386 10.38 34.732 10.48C34.4253 10.5733 34.0853 10.62 33.712 10.62C33.3853 10.62 33.0986 10.5833 32.852 10.51C32.6053 10.4433 32.3853 10.3533 32.192 10.24C32.0053 10.12 31.8386 9.98667 31.692 9.84C31.552 9.68667 31.4286 9.53 31.322 9.37L32.152 8.72C32.2386 8.86 32.3286 8.99 32.422 9.11C32.522 9.22333 32.632 9.32333 32.752 9.41C32.8786 9.49 33.0186 9.55333 33.172 9.6C33.332 9.64667 33.512 9.67 33.712 9.67C34.1386 9.67 34.4653 9.57 34.692 9.37C34.9186 9.16333 35.032 8.88 35.032 8.52V8.45C35.032 8.09 34.912 7.81667 34.672 7.63C34.432 7.44333 34.092 7.35 33.652 7.35H32.912V6.39H33.622Z" fill="white"/>
</svg>
