<svg width="41" height="41" viewBox="0 0 41 41" fill="none" xmlns="http://www.w3.org/2000/svg">
<rect y="0.5" width="40" height="40" rx="20" fill="white"/>
<path d="M14.2526 18.5622C14.2184 18.1494 14.5253 17.7871 14.9381 17.7529C15.3602 17.7176 15.618 17.7455 15.8762 17.7735L15.8839 17.7744C16.3776 17.8279 17.1004 17.9745 17.6624 18.4208C18.0532 18.7312 18.3496 19.11 18.5553 19.422C18.8349 19.8459 18.7983 20.3461 18.5422 20.7128C18.3008 21.0584 17.8975 21.2501 17.4764 21.2501C16.6942 21.2501 15.9323 20.5219 16.2175 19.6173L16.2924 19.3796C16.1201 19.3253 15.9252 19.2877 15.7222 19.2656C15.5323 19.245 15.1844 19.2468 15.0616 19.2478C14.649 19.2818 14.2868 18.9749 14.2526 18.5622Z" fill="#03578A"/>
<path d="M25.747 18.5783C25.7843 18.1657 25.4796 17.8011 25.0671 17.7638C24.6862 17.7294 24.3816 17.7524 24.1204 17.7792C23.6263 17.8299 22.9015 17.9731 22.3377 18.4208C21.9468 18.7312 21.6505 19.11 21.4447 19.422C21.1652 19.8459 21.2017 20.3461 21.4579 20.7128C21.6993 21.0584 22.1026 21.2501 22.5236 21.2501C23.3058 21.2501 24.0677 20.5219 23.7826 19.6173L23.7081 19.3811C23.8789 19.3283 24.072 19.292 24.2736 19.2713C24.4631 19.2519 24.8106 19.256 24.9333 19.2578C25.3455 19.2947 25.7098 18.9906 25.747 18.5783Z" fill="#03578A"/>
<path d="M17.4505 24.9004C17.1194 24.6516 16.6492 24.7184 16.4004 25.0495C16.1516 25.3807 16.2184 25.8508 16.5495 26.0997C17.5106 26.8217 18.7064 27.2499 20 27.2499C21.2937 27.2499 22.4895 26.8217 23.4505 26.0997C23.7817 25.8508 23.8485 25.3807 23.5997 25.0495C23.3509 24.7184 22.8807 24.6516 22.5495 24.9004C21.8393 25.434 20.9577 25.7499 20 25.7499C19.0424 25.7499 18.1607 25.434 17.4505 24.9004Z" fill="#03578A"/>
<path fill-rule="evenodd" clip-rule="evenodd" d="M30.5304 10.9697C30.7294 11.1687 30.8002 11.4624 30.7138 11.7303L29.0283 16.9553C28.9668 17.1458 28.9315 17.2563 28.9099 17.3409C28.8988 17.3846 28.895 17.4078 28.8938 17.4177C28.896 17.4287 28.9029 17.4588 28.922 17.5174C28.9556 17.6201 29.0079 17.7554 29.0924 17.9732C29.5173 19.0679 29.75 20.2577 29.75 21.5C29.75 26.8848 25.3848 31.25 20 31.25C14.6152 31.25 10.25 26.8848 10.25 21.5C10.25 20.2577 10.4827 19.068 10.9076 17.9732C10.9922 17.7554 11.0444 17.6201 11.078 17.5174C11.0972 17.4588 11.104 17.4287 11.1062 17.4177C11.105 17.4078 11.1013 17.3846 11.0901 17.3409C11.0685 17.2563 11.0332 17.1458 10.9718 16.9553L9.28624 11.7303C9.19983 11.4624 9.27067 11.1687 9.46969 10.9697C9.66871 10.7707 9.96241 10.6998 10.2303 10.7862L15.9464 12.6302C17.1817 12.0648 18.555 11.75 20 11.75C21.445 11.75 22.8184 12.0648 24.0536 12.6302L29.7698 10.7862C30.0376 10.6998 30.3313 10.7707 30.5304 10.9697ZM25.782 13.6487C25.8998 13.7356 26.0155 13.825 26.1291 13.917C26.4511 14.1775 26.5009 14.6498 26.2404 14.9718C25.9798 15.2938 25.5076 15.3436 25.1856 15.083C24.7183 14.7049 24.2091 14.377 23.6662 14.1072C22.5627 13.5587 21.3185 13.25 20 13.25C18.6816 13.25 17.4374 13.5587 16.3338 14.1072C15.7909 14.377 15.2817 14.7049 14.8145 15.083C14.4925 15.3436 14.0202 15.2938 13.7597 14.9718C13.4991 14.6498 13.5489 14.1775 13.8709 13.917C13.9845 13.825 14.1003 13.7356 14.218 13.6487L11.1634 12.6633L12.3993 16.4948L12.4232 16.5682C12.5163 16.8543 12.615 17.1577 12.6061 17.4641C12.6005 17.6569 12.5531 17.8326 12.5037 17.9837C12.4559 18.1297 12.3885 18.3035 12.3127 18.4986L12.306 18.516C11.9472 19.4404 11.75 20.4463 11.75 21.5C11.75 26.0564 15.4437 29.75 20 29.75C24.5564 29.75 28.25 26.0564 28.25 21.5C28.25 20.4463 28.0528 19.4404 27.694 18.516L27.6873 18.4987C27.6116 18.3035 27.5441 18.1297 27.4963 17.9837C27.4469 17.8326 27.3996 17.6569 27.394 17.4642C27.3851 17.1577 27.4838 16.8543 27.5769 16.5682L27.6007 16.4948L28.8367 12.6633L25.782 13.6487Z" fill="#03578A"/>
<path d="M10.897 36.6702C10.897 35.1974 9.70309 34.0035 8.23034 34.0035C6.75758 34.0035 5.56367 35.1974 5.56367 36.6702C5.56367 38.1429 6.75758 39.3369 8.23034 39.3369C9.70309 39.3369 10.897 38.1429 10.897 36.6702ZM16.8636 40.2525L16.942 39.7587L16.8636 40.2525ZM34.1499 34.6344L34.5037 34.9877L34.1499 34.6344ZM39.0274 26.6609L38.5517 26.5069L39.0274 26.6609ZM19.9405 8.39233e-05C19.6643 0.00088501 19.4411 0.225391 19.4419 0.501534C19.4427 0.777676 19.6672 1.00088 19.9434 1.00008L19.9405 8.39233e-05ZM8.23034 36.6702L7.93609 37.0744C10.5544 38.9802 13.5868 40.2385 16.7852 40.7464L16.8636 40.2525L16.942 39.7587C13.8997 39.2756 11.0151 38.0787 8.52458 36.2659L8.23034 36.6702ZM16.8636 40.2525L16.7852 40.7464C19.9835 41.2542 23.2566 40.9971 26.3364 39.9962L26.1818 39.5206L26.0273 39.0451C23.0977 39.9973 19.9843 40.2418 16.942 39.7587L16.8636 40.2525ZM26.1818 39.5206L26.3364 39.9962C29.4162 38.9952 32.215 37.2788 34.5037 34.9877L34.1499 34.6344L33.7962 34.281C31.6192 36.4604 28.9569 38.093 26.0273 39.0451L26.1818 39.5206ZM34.1499 34.6344L34.5037 34.9877C36.7923 32.6966 38.5055 29.8958 39.5031 26.8149L39.0274 26.6609L38.5517 26.5069C37.6028 29.4375 35.9731 32.1016 33.7962 34.281L34.1499 34.6344ZM39.0274 26.6609L39.5031 26.8149C40.5007 23.734 40.7542 20.4606 40.2428 17.2629L39.7491 17.3418L39.2553 17.4208C39.7418 20.4626 39.5006 23.5763 38.5517 26.5069L39.0274 26.6609ZM39.7491 17.3418L40.2428 17.2629C39.7314 14.0651 38.4698 11.034 36.5612 8.41787L36.1572 8.71256L35.7533 9.00724C37.5688 11.4958 38.7689 14.379 39.2553 17.4208L39.7491 17.3418ZM36.1572 8.71256L36.5612 8.41787C34.6526 5.80171 32.1513 3.67493 29.2623 2.21177L29.0364 2.65782L28.8105 3.10387C31.5586 4.49567 33.9378 6.5187 35.7533 9.00724L36.1572 8.71256ZM29.0364 2.65782L29.2623 2.21177C26.3733 0.7486 23.1788 -0.00932693 19.9405 8.39233e-05L19.9419 0.50008L19.9434 1.00008C23.0238 0.991131 26.0624 1.71209 28.8105 3.10387L29.0364 2.65782Z" fill="#03578A"/>
</svg>
