<svg width="22" height="20" viewBox="0 0 22 20" fill="none" xmlns="http://www.w3.org/2000/svg">
<path fill-rule="evenodd" clip-rule="evenodd" d="M20.5 9.63206C20.5669 9.68503 20.6318 9.74268 20.6945 9.80546C21.15 10.2609 21.3357 10.8277 21.4201 11.4555C21.5001 12.0503 21.5 12.7995 21.5 13.698V18.75C21.5 19.1642 21.1642 19.5 20.75 19.5C20.3358 19.5 20 19.1642 20 18.75V16H1.5V18.75C1.5 19.1642 1.16422 19.5 0.750003 19.5C0.33579 19.5 3.31126e-06 19.1642 3.31126e-06 18.75L1.05769e-06 13.698C-2.72069e-05 12.7995 -5.07757e-05 12.0503 0.0799145 11.4555C0.164319 10.8277 0.34999 10.2609 0.80546 9.80546C0.868237 9.74268 0.933129 9.68503 1 9.63206L1 6.70063C0.999966 6.03576 0.999933 5.4629 1.06161 5.00416C1.12771 4.51252 1.27677 4.04126 1.65901 3.65901C2.04126 3.27676 2.51252 3.1277 3.00416 3.06161C3.4629 2.99993 4.03574 2.99996 4.70059 3L4.75 3C4.84214 3 4.93748 3.00579 5.00957 3.01017L5.01776 3.01066C5.09947 3.01562 5.16159 3.01924 5.2197 3.01982C5.23676 3.01999 5.25175 3.01986 5.26486 3.01951C5.27759 3.00152 5.29224 2.98029 5.30929 2.95513C5.34497 2.90246 5.38554 2.84082 5.43616 2.7639C6.54455 1.0794 8.74716 0 10.75 0C12.7529 0 14.9555 1.0794 16.0639 2.7639C16.1145 2.84082 16.155 2.90246 16.1907 2.95513C16.2078 2.98029 16.2224 3.00152 16.2351 3.01951C16.2483 3.01986 16.2632 3.01999 16.2803 3.01982C16.3384 3.01924 16.4005 3.01562 16.4822 3.01066L16.4904 3.01017C16.5625 3.00579 16.6579 3 16.75 3L16.7994 3C17.4642 2.99996 18.0371 2.99993 18.4958 3.06161C18.9875 3.1277 19.4587 3.27676 19.841 3.65901C20.2232 4.04126 20.3723 4.51252 20.4384 5.00416C20.5001 5.4629 20.5 6.03576 20.5 6.70063V9.63206ZM16.802 9H15.5V8.36781C15.5 8.10194 15.4846 7.7424 15.2823 7.41743C15.0731 7.08148 14.7489 6.91371 14.4839 6.80066C13.4388 6.35478 12.1526 6 10.75 6C9.34742 6 8.06115 6.35478 7.01609 6.80066C6.75112 6.91371 6.42689 7.08148 6.21771 7.41743C6.01537 7.7424 6 8.10194 6 8.36781V9H4.698C3.82178 8.99997 3.08751 8.99995 2.5 9.07412V6.75C2.5 6.02169 2.5016 5.55091 2.54823 5.20403C2.59197 4.87872 2.66258 4.77676 2.71967 4.71967C2.77677 4.66258 2.87873 4.59197 3.20403 4.54823C3.55091 4.50159 4.0217 4.5 4.75 4.5C4.7917 4.5 4.84338 4.50285 4.92702 4.50792L4.93462 4.50838C5.00863 4.51287 5.10565 4.51876 5.20471 4.51975C5.38973 4.5216 5.70959 4.51156 6.00871 4.35031C6.20815 4.2428 6.33962 4.0854 6.42019 3.98018C6.50051 3.87529 6.5881 3.74214 6.6773 3.60654L6.68923 3.58841C7.49387 2.36554 9.20207 1.5 10.75 1.5C12.2979 1.5 14.0061 2.36554 14.8108 3.58841L14.8227 3.60653C14.9119 3.74213 14.9995 3.87528 15.0798 3.98018C15.1604 4.0854 15.2919 4.2428 15.4913 4.35031C15.7904 4.51156 16.1103 4.5216 16.2953 4.51975C16.3944 4.51876 16.4914 4.51287 16.5654 4.50838L16.573 4.50792C16.6566 4.50285 16.7083 4.5 16.75 4.5C17.4783 4.5 17.9491 4.50159 18.296 4.54823C18.6213 4.59197 18.7232 4.66258 18.7803 4.71967C18.8374 4.77676 18.908 4.87872 18.9518 5.20403C18.9984 5.55091 19 6.02169 19 6.75V9.07412C18.4125 8.99995 17.6782 8.99997 16.802 9ZM7.5 9H14V8.36781C14 8.30447 13.9982 8.25913 13.9957 8.22683C13.9721 8.21468 13.9396 8.19923 13.8953 8.18034C12.9874 7.79299 11.9031 7.5 10.75 7.5C9.59688 7.5 8.51261 7.79299 7.60472 8.18034C7.56045 8.19923 7.52789 8.21468 7.50427 8.22683C7.50181 8.25913 7.5 8.30447 7.5 8.36781V9ZM20 14.5V13.75C20 12.786 19.9984 12.1384 19.9335 11.6554C19.8714 11.1939 19.7642 10.9964 19.6339 10.8661C19.5036 10.7358 19.3061 10.6286 18.8446 10.5665C18.3616 10.5016 17.714 10.5 16.75 10.5H4.75C3.78599 10.5 3.13843 10.5016 2.6554 10.5665C2.19393 10.6286 1.99644 10.7358 1.86612 10.8661C1.7358 10.9964 1.62858 11.1939 1.56654 11.6554C1.5016 12.1384 1.5 12.786 1.5 13.75V14.5H20Z" fill="#1F1F1E"/>
</svg>
