<svg width="40" height="41" viewBox="0 0 40 41" fill="none" xmlns="http://www.w3.org/2000/svg">
<rect y="0.5" width="40" height="40" rx="20" fill="white"/>
<path fill-rule="evenodd" clip-rule="evenodd" d="M27.0704 13.1335C24.6881 11.6721 22.6812 12.2692 21.4847 13.1677C21.2896 13.3143 21.1068 13.4717 20.9543 13.6118L23.136 17.1025C23.3347 17.4204 23.2681 17.8362 22.9801 18.0762L20.611 20.0504L22.0303 21.4697C22.2737 21.713 22.3202 22.0908 22.1431 22.3859L20.6431 24.8859C20.43 25.2411 19.9693 25.3562 19.6141 25.1431C19.2589 24.93 19.1437 24.4693 19.3569 24.1141L20.5556 22.1163L18.9696 20.5303C18.8206 20.3813 18.7412 20.1765 18.7507 19.966C18.7603 19.7555 18.858 19.5587 19.0198 19.4238L21.5172 17.3427L19.364 13.8975C19.1853 13.6115 19.2194 13.2415 19.4473 12.993L20 13.5C19.4473 12.993 19.4473 12.993 19.4473 12.993L19.4502 12.9898L19.4558 12.9838L19.4747 12.9636C19.4907 12.9466 19.5134 12.9227 19.5421 12.8931C19.5994 12.834 19.6811 12.7516 19.7818 12.6551C19.9816 12.4635 20.2638 12.2087 20.584 11.9683C22.1995 10.7551 24.8737 10.0263 27.8547 11.8548C29.9159 13.1192 31.0758 15.7603 30.6688 18.7948C30.2598 21.844 28.2862 25.2926 24.1066 28.3862C24.0717 28.4121 24.037 28.4377 24.0026 28.4632C22.5512 29.5381 21.59 30.25 20 30.25C18.4099 30.25 17.4487 29.5381 15.9973 28.4632C15.9629 28.4378 15.9283 28.4121 15.8933 28.3862C11.7137 25.2926 9.74012 21.844 9.33117 18.7948C8.92419 15.7603 10.084 13.1192 12.1453 11.8548C14.2322 10.5747 16.1903 10.5401 17.7456 11.0792C18.137 11.2149 18.3443 11.6421 18.2086 12.0335C18.073 12.4249 17.6457 12.6322 17.2544 12.4965C16.1204 12.1035 14.6307 12.09 12.9296 13.1335C11.4714 14.0279 10.4734 16.0272 10.8179 18.5954C11.1604 21.149 12.8475 24.2656 16.7857 27.1805C18.3679 28.3516 18.9453 28.75 20 28.75C21.0546 28.75 21.6321 28.3516 23.2143 27.1805C27.1525 24.2656 28.8396 21.149 29.1821 18.5954C29.5265 16.0272 28.5285 14.0279 27.0704 13.1335Z" fill="#FFBF1A"/>
<path d="M36.8088 6.35785C36.8088 4.88509 35.6148 3.69118 34.1421 3.69118C32.6693 3.69118 31.4754 4.88509 31.4754 6.35785C31.4754 7.83061 32.6693 9.02452 34.1421 9.02452C35.6148 9.02452 36.8088 7.83061 36.8088 6.35785ZM20 -1.52588e-05C19.7238 -1.52588e-05 19.5 0.223842 19.5 0.499985C19.5 0.776127 19.7238 0.999985 20 0.999985V-1.52588e-05ZM34.1421 6.35785L34.4956 6.0043C30.6511 2.1598 25.4369 -1.43051e-05 20 -1.52588e-05V0.499985V0.999985C25.1717 0.999986 30.1316 3.05444 33.7885 6.7114L34.1421 6.35785Z" fill="#FFBF1A"/>
</svg>
