<svg width="24" height="24" viewBox="0 0 24 24" fill="none" xmlns="http://www.w3.org/2000/svg">
<path d="M7 6C7 5.44772 7.44772 5 8 5H8.00898C8.56127 5 9.00898 5.44772 9.00898 6C9.00898 6.55229 8.56127 7 8.00898 7H8C7.44772 7 7 6.55229 7 6Z" fill="#1F1F1E"/>
<path d="M7.25 17C7.25 17.4142 7.58579 17.75 8 17.75C8.41421 17.75 8.75 17.4142 8.75 17V14C8.75 13.5858 8.41421 13.25 8 13.25C7.58579 13.25 7.25 13.5858 7.25 14L7.25 17Z" fill="#1F1F1E"/>
<path fill-rule="evenodd" clip-rule="evenodd" d="M12.0564 1.25H11.9436C10.1058 1.24998 8.65019 1.24997 7.51098 1.40314C6.33856 1.56076 5.38961 1.89288 4.64124 2.64124C3.89288 3.38961 3.56076 4.33856 3.40314 5.51098C3.24997 6.65019 3.24999 8.10582 3.25 9.94357V14.0564C3.24998 15.8942 3.24997 17.3498 3.40314 18.489C3.56076 19.6614 3.89288 20.6104 4.64124 21.3588C5.38961 22.1071 6.33856 22.4392 7.51098 22.5969C8.65018 22.75 10.1058 22.75 11.9435 22.75H12.0564C13.8942 22.75 15.3498 22.75 16.489 22.5969C17.6614 22.4392 18.6104 22.1071 19.3588 21.3588C20.1071 20.6104 20.4392 19.6614 20.5969 18.489C20.75 17.3498 20.75 15.8942 20.75 14.0565V9.94359C20.75 8.10585 20.75 6.65019 20.5969 5.51098C20.4392 4.33856 20.1071 3.38961 19.3588 2.64124C18.6104 1.89288 17.6614 1.56076 16.489 1.40314C15.3498 1.24997 13.8942 1.24998 12.0564 1.25ZM19.2496 9.25C19.247 7.72972 19.2296 6.59835 19.1102 5.71085C18.975 4.70476 18.7213 4.12511 18.2981 3.7019C17.8749 3.27869 17.2952 3.02503 16.2892 2.88976C15.2615 2.75159 13.9068 2.75 12 2.75C10.0932 2.75 8.73852 2.75159 7.71085 2.88976C6.70476 3.02503 6.12511 3.27869 5.7019 3.7019C5.27869 4.12511 5.02503 4.70476 4.88976 5.71085C4.77044 6.59834 4.75298 7.72972 4.75043 9.25H19.2496ZM4.75 10.75H19.25V14C19.25 15.9068 19.2484 17.2615 19.1102 18.2892C18.975 19.2952 18.7213 19.8749 18.2981 20.2981C17.8749 20.7213 17.2952 20.975 16.2892 21.1102C15.2615 21.2484 13.9068 21.25 12 21.25C10.0932 21.25 8.73851 21.2484 7.71085 21.1102C6.70476 20.975 6.12511 20.7213 5.7019 20.2981C5.27869 19.8749 5.02503 19.2952 4.88976 18.2892C4.75159 17.2615 4.75 15.9068 4.75 14L4.75 10.75Z" fill="#1F1F1E"/>
</svg>
