<svg width="41" height="41" viewBox="0 0 41 41" fill="none" xmlns="http://www.w3.org/2000/svg">
<rect x="0.5" y="0.499603" width="40" height="40" rx="20" fill="white"/>
<path d="M15.9003 25.0492C16.948 23.6543 18.6184 22.7496 20.5 22.7496C22.3816 22.7496 24.052 23.6543 25.0997 25.0492C25.3484 25.3804 25.2816 25.8505 24.9504 26.0993C24.6192 26.348 24.1491 26.2812 23.9003 25.95C23.1237 24.916 21.8898 24.2496 20.5 24.2496C19.1102 24.2496 17.8763 24.916 17.0997 25.95C16.8509 26.2812 16.3808 26.3481 16.0496 26.0993C15.7184 25.8505 15.6516 25.3804 15.9003 25.0492Z" fill="#F46983"/>
<path d="M16.5 16.4996C15.9477 16.4996 15.5 16.9473 15.5 17.4996C15.5 18.0519 15.9477 18.4996 16.5 18.4996H16.509C17.0613 18.4996 17.509 18.0519 17.509 17.4996C17.509 16.9473 17.0613 16.4996 16.509 16.4996H16.5Z" fill="#F46983"/>
<path d="M24.491 16.4996C23.9387 16.4996 23.491 16.9473 23.491 17.4996C23.491 18.0519 23.9387 18.4996 24.491 18.4996H24.5C25.0523 18.4996 25.5 18.0519 25.5 17.4996C25.5 16.9473 25.0523 16.4996 24.5 16.4996H24.491Z" fill="#F46983"/>
<path fill-rule="evenodd" clip-rule="evenodd" d="M9.75 20.4996C9.75 14.5625 14.5629 9.7496 20.5 9.7496C26.4371 9.7496 31.25 14.5625 31.25 20.4996C31.25 26.4367 26.4371 31.2496 20.5 31.2496C14.5629 31.2496 9.75 26.4367 9.75 20.4996ZM20.5 11.2496C15.3914 11.2496 11.25 15.391 11.25 20.4996C11.25 25.6082 15.3914 29.7496 20.5 29.7496C25.6086 29.7496 29.75 25.6082 29.75 20.4996C29.75 15.391 25.6086 11.2496 20.5 11.2496Z" fill="#F46983"/>
<path d="M13.407 3.0425C13.407 1.56974 12.2131 0.375832 10.7403 0.375832C9.26756 0.375832 8.07365 1.56974 8.07365 3.0425C8.07365 4.51526 9.26756 5.70917 10.7403 5.70917C12.2131 5.70917 13.407 4.51526 13.407 3.0425ZM25.4807 39.8695L25.6052 40.3537L25.4807 39.8695ZM40.3497 18.0529L39.8535 18.1141L40.3497 18.0529ZM33.7968 5.5599L34.1292 5.18641L33.7968 5.5599ZM20.6313 0C20.3552 -0.00177002 20.1299 0.22065 20.1281 0.496784C20.1263 0.772923 20.3488 0.998211 20.6249 0.999977L20.6313 0ZM10.7403 3.0425L10.4963 2.60607C6.1495 5.03623 2.83592 8.9656 1.17448 13.6603L1.64583 13.8271L2.11718 13.9939C3.69759 9.52823 6.84952 5.79054 10.9843 3.47893L10.7403 3.0425ZM1.64583 13.8271L1.17448 13.6603C-0.486973 18.355 -0.382679 23.4939 1.46789 28.1173L1.93208 27.9315L2.39628 27.7457C0.635983 23.3479 0.536777 18.4596 2.11718 13.9939L1.64583 13.8271ZM1.93208 27.9315L1.46789 28.1173C3.31845 32.7408 6.78873 36.5324 11.2306 38.7842L11.4567 38.3383L11.6827 37.8923C7.45757 35.7504 4.15657 32.1436 2.39628 27.7457L1.93208 27.9315ZM11.4567 38.3383L11.2306 38.7842C15.6724 41.036 20.7821 41.5939 25.6052 40.3537L25.4807 39.8695L25.3561 39.3852C20.7683 40.5649 15.9079 40.0342 11.6827 37.8923L11.4567 38.3383ZM25.4807 39.8695L25.6052 40.3537C30.4283 39.1135 34.635 36.16 37.4397 32.0449L37.0266 31.7633L36.6134 31.4817C33.9455 35.3961 29.944 38.2055 25.3561 39.3852L25.4807 39.8695ZM37.0266 31.7633L37.4397 32.0449C40.2444 27.9298 41.4552 22.9344 40.846 17.9918L40.3497 18.0529L39.8535 18.1141C40.433 22.8156 39.2812 27.5673 36.6134 31.4817L37.0266 31.7633ZM40.3497 18.0529L40.846 17.9918C40.2368 13.0492 37.8492 8.49733 34.1292 5.18641L33.7968 5.5599L33.4644 5.93339C37.0029 9.0828 39.274 13.4126 39.8535 18.1141L40.3497 18.0529ZM33.7968 5.5599L34.1292 5.18641C30.4092 1.87548 25.6112 0.0319061 20.6313 0L20.6281 0.499989L20.6249 0.999977C25.3619 1.03033 29.9258 2.78398 33.4644 5.93339L33.7968 5.5599Z" fill="#F46983"/>
</svg>
