<svg width="24" height="24" viewBox="0 0 24 24" fill="none" xmlns="http://www.w3.org/2000/svg">
<path d="M10.0078 8C10.0078 8.55228 9.5601 9 9.00781 9H8.99883C8.44655 9 7.99883 8.55228 7.99883 8C7.99883 7.44771 8.44655 7 8.99883 7H9.00781C9.5601 7 10.0078 7.44772 10.0078 8Z" fill="#1F1F1E"/>
<path d="M15.5303 7.53033C15.8232 7.23744 15.8232 6.76256 15.5303 6.46967C15.2374 6.17678 14.7626 6.17678 14.4697 6.46967L13.4697 7.46967C13.1768 7.76256 13.1768 8.23744 13.4697 8.53033C13.7626 8.82322 14.2374 8.82322 14.5303 8.53033L15.5303 7.53033Z" fill="#1F1F1E"/>
<path fill-rule="evenodd" clip-rule="evenodd" d="M21.1539 10.5031C21.2419 10.2457 21.2646 9.98284 21.2419 9.71079C21.212 9.35258 21.0986 8.95304 20.9836 8.54793L20.9688 8.49583C20.1296 5.53588 17.7782 3.25 14.8542 3.25H9.1461C6.22213 3.25 3.87072 5.53588 3.03155 8.49583L3.01676 8.54796C2.90178 8.95306 2.78838 9.35259 2.75848 9.71079C2.73577 9.98279 2.75844 10.2456 2.84643 10.5029C1.90389 10.9391 1.25 11.8932 1.25 13C1.25 14.0831 1.87611 15.0199 2.78613 15.4683C2.74484 15.6423 2.74283 15.8097 2.76079 15.9634C2.79635 16.2677 2.92595 16.5931 3.03471 16.8661L3.05585 16.9193C3.95889 19.1944 6.38224 20.75 9.14594 20.75H14.8541C17.6178 20.75 20.0411 19.1944 20.9442 16.9193L20.9653 16.8661C21.0741 16.5931 21.2037 16.2676 21.2392 15.9634C21.2572 15.8097 21.2552 15.6423 21.2139 15.4683C22.1239 15.0199 22.75 14.0831 22.75 13C22.75 11.8933 22.0963 10.9393 21.1539 10.5031ZM9.1461 4.75C7.0788 4.75 5.18708 6.39214 4.47467 8.90497C4.33915 9.38298 4.26959 9.64014 4.25328 9.83557C4.24167 9.97461 4.26075 10.0298 4.31198 10.1056L4.31427 10.109C4.33859 10.1451 4.3591 10.1755 4.50804 10.2048C4.72059 10.2467 5.02559 10.25 5.57851 10.25H18.4218C18.9748 10.25 19.2798 10.2467 19.4923 10.2048C19.6412 10.1755 19.6618 10.1451 19.6861 10.109L19.6884 10.1056C19.7396 10.0298 19.7587 9.97461 19.7471 9.83557C19.7308 9.64014 19.6612 9.38297 19.5257 8.90497C18.8133 6.39214 16.9215 4.75 14.8542 4.75H9.1461ZM12.345 11.75L11.056 13.2538C10.7307 13.6334 10.4367 13.9765 10.1625 14.2177C9.86362 14.4807 9.48957 14.7134 9 14.7134C8.51043 14.7134 8.13638 14.4807 7.83746 14.2177C7.56334 13.9765 7.2693 13.6334 6.94403 13.2538L5.65505 11.75H4C3.30964 11.75 2.75 12.3096 2.75 13C2.75 13.6904 3.30964 14.25 4 14.25H5C5.01825 14.25 5.03634 14.2507 5.05426 14.2519C5.20683 14.25 5.36613 14.25 5.53063 14.25L6.00001 14.25C6.41423 14.25 6.75001 14.5858 6.75001 15C6.75001 15.4142 6.41423 15.75 6.00001 15.75H5.57835C5.03388 15.75 4.70442 15.7517 4.46747 15.785C4.35833 15.8004 4.30057 15.8188 4.27114 15.8315C4.26676 15.8334 4.26295 15.8352 4.25963 15.8369C4.26694 15.8678 4.2794 15.9118 4.30033 15.9733C4.33596 16.0779 4.38416 16.1999 4.45005 16.3659C5.09858 17.9998 6.91838 19.25 9.14594 19.25H14.8541C17.0816 19.25 18.9014 17.9998 19.55 16.3659C19.6159 16.1999 19.6641 16.0779 19.6997 15.9733C19.7206 15.9118 19.7331 15.8678 19.7404 15.8369C19.7371 15.8352 19.7333 15.8334 19.7289 15.8315C19.6995 15.8188 19.6417 15.8004 19.5326 15.785C19.2956 15.7517 18.9661 15.75 18.4217 15.75H14C13.5858 15.75 13.25 15.4142 13.25 15C13.25 14.5858 13.5858 14.25 14 14.25L18.4692 14.25C18.6337 14.25 18.7932 14.25 18.9457 14.2519C18.9637 14.2507 18.9818 14.25 19 14.25H20C20.6904 14.25 21.25 13.6904 21.25 13C21.25 12.3096 20.6904 11.75 20 11.75H12.345ZM7.63067 11.75L8.05093 12.2403C8.41863 12.6693 8.6436 12.929 8.82836 13.0916C8.91387 13.1668 8.96441 13.1968 8.98864 13.2082C8.99406 13.2108 8.99779 13.2123 9 13.213L9.00412 13.2115L9.01136 13.2082C9.03559 13.1968 9.08613 13.1668 9.17164 13.0916C9.3564 12.929 9.58137 12.6693 9.94907 12.2403L10.3693 11.75H7.63067Z" fill="#1F1F1E"/>
</svg>
