<svg width="24" height="24" viewBox="0 0 24 24" fill="none" xmlns="http://www.w3.org/2000/svg">
<path d="M2.75 12C2.75 6.89137 6.89137 2.75 12 2.75C12.3127 2.75 12.6216 2.76549 12.9259 2.79571C13.3381 2.83663 13.7054 2.53566 13.7463 2.12348C13.7873 1.71129 13.4863 1.34397 13.0741 1.30305C12.7206 1.26795 12.3623 1.25 12 1.25C6.06294 1.25 1.25 6.06294 1.25 12C1.25 17.9371 6.06294 22.75 12 22.75C17.9371 22.75 22.75 17.9371 22.75 12C22.75 11.2647 22.6761 10.5459 22.535 9.8508C22.4526 9.44487 22.0567 9.18259 21.6508 9.26499C21.2448 9.34739 20.9826 9.74326 21.065 10.1492C21.1862 10.7466 21.25 11.3655 21.25 12C21.25 17.1086 17.1086 21.25 12 21.25C6.89137 21.25 2.75 17.1086 2.75 12Z" fill="#1F1F1E"/>
<path d="M8.03033 9.96967C7.73744 9.67678 7.26256 9.67678 6.96967 9.96967C6.67678 10.2626 6.67678 10.7374 6.96967 11.0303C7.43047 11.4911 8.05544 11.75 8.70711 11.75H10C10.4142 11.75 10.75 11.4142 10.75 11C10.75 10.5858 10.4142 10.25 10 10.25H8.70711C8.45327 10.25 8.20982 10.1492 8.03033 9.96967Z" fill="#1F1F1E"/>
<path d="M17.0303 11.0303C17.3232 10.7374 17.3232 10.2626 17.0303 9.96967C16.7374 9.67678 16.2626 9.67678 15.9697 9.96967C15.7902 10.1492 15.5467 10.25 15.2929 10.25H14C13.5858 10.25 13.25 10.5858 13.25 11C13.25 11.4142 13.5858 11.75 14 11.75H15.2929C15.9446 11.75 16.5695 11.4911 17.0303 11.0303Z" fill="#1F1F1E"/>
<path fill-rule="evenodd" clip-rule="evenodd" d="M9.25 16C9.25 14.4812 10.4812 13.25 12 13.25C13.5188 13.25 14.75 14.4812 14.75 16C14.75 17.5188 13.5188 18.75 12 18.75C10.4812 18.75 9.25 17.5188 9.25 16ZM12 14.75C11.3096 14.75 10.75 15.3096 10.75 16C10.75 16.6904 11.3096 17.25 12 17.25C12.6904 17.25 13.25 16.6904 13.25 16C13.25 15.3096 12.6904 14.75 12 14.75Z" fill="#1F1F1E"/>
<path d="M17 2.75002H19.7367L17.3924 5.41741C17.2069 5.62842 17.018 5.84318 16.8932 6.03338C16.771 6.21955 16.5486 6.61995 16.741 7.08607C16.9412 7.57099 17.4012 7.68244 17.6269 7.71658C17.8495 7.75025 18.132 7.75014 18.402 7.75003L21 7.75002C21.4142 7.75002 21.75 7.41424 21.75 7.00002C21.75 6.58581 21.4142 6.25002 21 6.25002H18.6576L21.002 3.58262C21.1875 3.37163 21.3764 3.15685 21.5012 2.96667C21.6233 2.7805 21.8457 2.3801 21.6534 1.91398C21.4532 1.42906 20.9931 1.31761 20.7675 1.28347C20.5449 1.2498 20.2624 1.24991 19.9924 1.25001L17 1.25002C16.5858 1.25002 16.25 1.58581 16.25 2.00002C16.25 2.41424 16.5858 2.75002 17 2.75002Z" fill="#1F1F1E"/>
</svg>
