<svg width="43" height="41" viewBox="0 0 43 41" fill="none" xmlns="http://www.w3.org/2000/svg">
<rect y="0.498016" width="40" height="40" rx="20" fill="white"/>
<path fill-rule="evenodd" clip-rule="evenodd" d="M23.5 15.248C22.259 15.248 21.25 14.239 21.25 12.998C21.25 11.757 22.259 10.748 23.5 10.748C24.741 10.748 25.75 11.757 25.75 12.998C25.75 14.239 24.741 15.248 23.5 15.248ZM23.5 12.248C23.086 12.248 22.75 12.584 22.75 12.998C22.75 13.412 23.086 13.748 23.5 13.748C23.914 13.748 24.25 13.412 24.25 12.998C24.25 12.584 23.914 12.248 23.5 12.248Z" fill="#57AB0F"/>
<path fill-rule="evenodd" clip-rule="evenodd" d="M22.9977 30.248C22.6627 30.248 22.3577 30.022 22.2717 29.682L21.6076 27.062C21.4216 26.333 21.0357 25.665 20.4937 25.133L19.0017 23.662C17.9417 22.831 17.3556 22.366 17.0866 21.637C16.9666 21.306 16.9107 20.965 16.9187 20.62C16.9367 19.849 17.3356 19.231 18.0616 18.108L18.5546 17.347C16.3226 17.653 15.3537 18.633 14.6667 19.987C14.4797 20.356 14.0277 20.504 13.6587 20.316C13.2897 20.128 13.1417 19.677 13.3297 19.308C14.5747 16.854 16.5636 15.789 19.9796 15.748H20.8696C21.4414 15.748 21.7868 15.748 22.1347 15.904C22.1437 15.908 22.1526 15.9121 22.1626 15.9171C22.5066 16.0881 22.7647 16.389 23.2277 16.951C23.3017 17.039 23.3857 17.124 23.4607 17.185C24.7037 18.102 26.0426 17.771 27.4406 16.199C27.7156 15.89 28.1896 15.862 28.4996 16.137C28.8096 16.412 28.8366 16.8861 28.5616 17.1961C26.3576 19.6741 24.3827 19.358 23.2307 18.793L20.4656 22.9961L21.5487 24.064C22.2847 24.787 22.8087 25.6971 23.0637 26.6921L23.7277 29.314C23.8297 29.716 23.5867 30.124 23.1847 30.225C23.1227 30.241 23.0606 30.248 22.9996 30.248H22.9977ZM20.4067 17.248L19.3217 18.9245C18.7453 19.8166 18.4276 20.3082 18.4196 20.656C18.4156 20.814 18.4417 20.971 18.4967 21.123C18.5827 21.356 18.8397 21.607 19.3227 22.002L22.0397 17.872C21.8537 17.647 21.6067 17.349 21.5027 17.269C21.4107 17.249 21.1357 17.249 20.8687 17.249L20.4067 17.248Z" fill="#57AB0F"/>
<path d="M12.5051 27.1178C12.8771 27.2058 13.2491 27.2478 13.6161 27.2478L13.6151 27.2488C15.3031 27.2488 16.8761 26.3498 17.6641 24.8468C17.8561 24.4798 17.7152 24.0258 17.3482 23.8338C16.9812 23.6418 16.5271 23.7827 16.3351 24.1497C15.7041 25.3527 14.2391 25.9867 12.8501 25.6577L12.1722 25.4978C11.7692 25.4018 11.3652 25.6528 11.2702 26.0558C11.1752 26.4588 11.4251 26.8627 11.8281 26.9577L12.5051 27.1178Z" fill="#57AB0F"/>
<path d="M42.3501 16.9539C42.3501 15.4811 41.1562 14.2872 39.6835 14.2872C38.2107 14.2872 37.0168 15.4811 37.0168 16.9539C37.0168 18.4266 38.2107 19.6206 39.6835 19.6206C41.1562 19.6206 42.3501 18.4266 42.3501 16.9539ZM32.9359 5.24477L33.2593 4.86344L32.9359 5.24477ZM20.2892 4.3869e-05C20.013 -0.00385094 19.786 0.216827 19.7822 0.492941C19.7783 0.769056 19.9989 0.99605 20.2751 0.999945L20.2892 4.3869e-05ZM39.6835 16.9539L40.1756 16.8653C39.3326 12.1834 36.8875 7.94039 33.2593 4.86344L32.9359 5.24477L32.6125 5.6261C36.0637 8.55295 38.3895 12.589 39.1914 17.0425L39.6835 16.9539ZM32.9359 5.24477L33.2593 4.86344C29.6312 1.78649 25.0459 0.0671463 20.2892 4.3869e-05L20.2821 0.499994L20.2751 0.999945C24.7997 1.06377 29.1614 2.69925 32.6125 5.6261L32.9359 5.24477Z" fill="#57AB0F"/>
</svg>
